# Compatible con Model.h, Mesh.h y modelLoading.frag
mtllib guirnalda_banderines.mtl
o guirnalda_banderines
v -2.000000 1.300000 0.000000
v -2.000000 1.300000 -0.012000
v -1.000000 1.220000 -0.012000
v -1.000000 1.220000 0.000000
v -1.999323 1.308458 -0.008485
v -0.999323 1.228458 -0.008485
v -1.999043 1.311962 -0.000000
v -0.999043 1.231962 -0.000000
v -1.999323 1.308458 0.008485
v -0.999323 1.228458 0.008485
v -2.000000 1.300000 0.012000
v -1.000000 1.220000 0.012000
v -2.000677 1.291542 0.008485
v -1.000677 1.211542 0.008485
v -2.000957 1.288038 0.000000
v -1.000957 1.208038 0.000000
v -2.000677 1.291542 -0.008485
v -1.000677 1.211542 -0.008485
v -1.000000 1.220000 0.000000
v -1.000000 1.220000 -0.012000
v 0.000000 1.170000 -0.012000
v 0.000000 1.170000 0.000000
v -0.999576 1.228475 -0.008485
v 0.000424 1.178475 -0.008485
v -0.999401 1.231985 -0.000000
v 0.000599 1.181985 -0.000000
v -0.999576 1.228475 0.008485
v 0.000424 1.178475 0.008485
v -1.000000 1.220000 0.012000
v 0.000000 1.170000 0.012000
v -1.000424 1.211525 0.008485
v -0.000424 1.161525 0.008485
v -1.000599 1.208015 0.000000
v -0.000599 1.158015 0.000000
v -1.000424 1.211525 -0.008485
v -0.000424 1.161525 -0.008485
v -0.000000 1.170000 0.000000
v -0.000000 1.170000 -0.012000
v 1.000000 1.220000 -0.012000
v 1.000000 1.220000 0.000000
v -0.000424 1.178475 -0.008485
v 0.999576 1.228475 -0.008485
v -0.000599 1.181985 -0.000000
v 0.999401 1.231985 -0.000000
v -0.000424 1.178475 0.008485
v 0.999576 1.228475 0.008485
v -0.000000 1.170000 0.012000
v 1.000000 1.220000 0.012000
v 0.000424 1.161525 0.008485
v 1.000424 1.211525 0.008485
v 0.000599 1.158015 0.000000
v 1.000599 1.208015 0.000000
v 0.000424 1.161525 -0.008485
v 1.000424 1.211525 -0.008485
v 1.000000 1.220000 0.000000
v 1.000000 1.220000 -0.012000
v 2.000000 1.300000 -0.012000
v 2.000000 1.300000 0.000000
v 0.999323 1.228458 -0.008485
v 1.999323 1.308458 -0.008485
v 0.999043 1.231962 -0.000000
v 1.999043 1.311962 -0.000000
v 0.999323 1.228458 0.008485
v 1.999323 1.308458 0.008485
v 1.000000 1.220000 0.012000
v 2.000000 1.300000 0.012000
v 1.000677 1.211542 0.008485
v 2.000677 1.291542 0.008485
v 1.000957 1.208038 0.000000
v 2.000957 1.288038 0.000000
v 1.000677 1.211542 -0.008485
v 2.000677 1.291542 -0.008485
v -1.940000 1.283750 0.000000
v -1.560000 1.283750 0.000000
v -1.750000 0.883750 0.000000
v -1.940000 1.283750 -0.012000
v -1.560000 1.283750 -0.012000
v -1.750000 0.883750 -0.012000
v -1.440000 1.251250 0.000000
v -1.060000 1.251250 0.000000
v -1.250000 0.851250 0.000000
v -1.440000 1.251250 -0.012000
v -1.060000 1.251250 -0.012000
v -1.250000 0.851250 -0.012000
v -0.940000 1.218750 0.000000
v -0.560000 1.218750 0.000000
v -0.750000 0.818750 0.000000
v -0.940000 1.218750 -0.012000
v -0.560000 1.218750 -0.012000
v -0.750000 0.818750 -0.012000
v -0.440000 1.186250 0.000000
v -0.060000 1.186250 0.000000
v -0.250000 0.786250 0.000000
v -0.440000 1.186250 -0.012000
v -0.060000 1.186250 -0.012000
v -0.250000 0.786250 -0.012000
v 0.060000 1.186250 0.000000
v 0.440000 1.186250 0.000000
v 0.250000 0.786250 0.000000
v 0.060000 1.186250 -0.012000
v 0.440000 1.186250 -0.012000
v 0.250000 0.786250 -0.012000
v 0.560000 1.218750 0.000000
v 0.940000 1.218750 0.000000
v 0.750000 0.818750 0.000000
v 0.560000 1.218750 -0.012000
v 0.940000 1.218750 -0.012000
v 0.750000 0.818750 -0.012000
v 1.060000 1.251250 0.000000
v 1.440000 1.251250 0.000000
v 1.250000 0.851250 0.000000
v 1.060000 1.251250 -0.012000
v 1.440000 1.251250 -0.012000
v 1.250000 0.851250 -0.012000
v 1.560000 1.283750 0.000000
v 1.940000 1.283750 0.000000
v 1.750000 0.883750 0.000000
v 1.560000 1.283750 -0.012000
v 1.940000 1.283750 -0.012000
v 1.750000 0.883750 -0.012000
vn -0.9968135 0.0797680 0.0000000
vn -0.0187820 -0.1357179 -0.9905695
vn 0.0187820 0.1357179 -0.9905695
vn 0.9968135 -0.0797680 -0.0000000
vn 0.0402711 0.6024436 -0.7971449
vn 0.0714416 0.7939652 -0.6037511
vn 0.0711188 0.9880437 -0.1367910
vn 0.0868674 0.9867838 0.1367910
vn 0.0556937 0.7952250 0.6037511
vn 0.0560191 0.6011837 0.7971449
vn 0.0030337 0.1369784 0.9905694
vn -0.0030337 -0.1369784 0.9905694
vn -0.0560191 -0.6011837 0.7971449
vn -0.0556937 -0.7952250 0.6037511
vn -0.0868674 -0.9867838 0.1367910
vn -0.0711188 -0.9880437 -0.1367910
vn -0.0714416 -0.7939652 -0.6037511
vn -0.0402711 -0.6024436 -0.7971449
vn -0.9987521 0.0499419 0.0000000
vn -0.0147350 -0.1362089 -0.9905705
vn 0.0147350 0.1362089 -0.9905705
vn 0.9987521 -0.0499419 0.0000000
vn 0.0222442 0.6033728 -0.7971489
vn 0.0477129 0.7957640 -0.6037244
vn 0.0415620 0.9897319 -0.1367601
vn 0.0573716 0.9889414 0.1367601
vn 0.0319030 0.7965543 0.6037246
vn 0.0380536 0.6025825 0.7971488
vn -0.0010746 0.1369999 0.9905705
vn 0.0010746 -0.1369999 0.9905705
vn -0.0380536 -0.6025825 0.7971488
vn -0.0319030 -0.7965543 0.6037246
vn -0.0573716 -0.9889414 0.1367601
vn -0.0415620 -0.9897319 -0.1367601
vn -0.0477129 -0.7957640 -0.6037244
vn -0.0222442 -0.6033728 -0.7971489
vn -0.9987521 -0.0499419 0.0000000
vn -0.0010746 -0.1369999 -0.9905705
vn 0.0010746 0.1369999 -0.9905705
vn 0.9987521 0.0499419 0.0000000
vn -0.0380536 0.6025825 -0.7971488
vn -0.0319030 0.7965543 -0.6037246
vn -0.0573716 0.9889414 -0.1367601
vn -0.0415620 0.9897319 0.1367601
vn -0.0477129 0.7957640 0.6037244
vn -0.0222442 0.6033728 0.7971489
vn -0.0147350 0.1362089 0.9905705
vn 0.0147350 -0.1362089 0.9905705
vn 0.0222442 -0.6033728 0.7971489
vn 0.0477129 -0.7957640 0.6037244
vn 0.0415620 -0.9897319 0.1367601
vn 0.0573716 -0.9889414 -0.1367601
vn 0.0319030 -0.7965543 -0.6037246
vn 0.0380536 -0.6025825 -0.7971488
vn -0.9968135 -0.0797680 -0.0000000
vn 0.0030337 -0.1369784 -0.9905694
vn -0.0030337 0.1369784 -0.9905694
vn 0.9968135 0.0797680 0.0000000
vn -0.0560191 0.6011837 -0.7971449
vn -0.0556937 0.7952250 -0.6037511
vn -0.0868674 0.9867838 -0.1367910
vn -0.0711188 0.9880437 0.1367910
vn -0.0714416 0.7939652 0.6037511
vn -0.0402711 0.6024436 0.7971449
vn -0.0187820 0.1357179 0.9905695
vn 0.0187820 -0.1357179 0.9905695
vn 0.0402711 -0.6024436 0.7971449
vn 0.0714416 -0.7939652 0.6037511
vn 0.0711188 -0.9880437 0.1367910
vn 0.0868674 -0.9867838 -0.1367910
vn 0.0556937 -0.7952250 -0.6037511
vn 0.0560191 -0.6011837 -0.7971449
vn 0.0315313 -0.0449322 -0.9984923
vn -0.0630323 0.0000000 -0.9980115
vn 0.0315313 0.0449322 -0.9984923
vn 0.0630323 0.0000000 0.9980115
vn -0.0315313 -0.0449322 0.9984923
vn -0.0315313 0.0449322 0.9984923
vn 0.0315313 -0.0449322 -0.9984923
vn -0.0630323 0.0000000 -0.9980115
vn 0.0315313 0.0449322 -0.9984923
vn 0.0630323 0.0000000 0.9980115
vn -0.0315313 -0.0449322 0.9984923
vn -0.0315313 0.0449322 0.9984923
vn 0.0315313 -0.0449322 -0.9984923
vn -0.0630323 0.0000000 -0.9980115
vn 0.0315313 0.0449322 -0.9984923
vn 0.0630323 0.0000000 0.9980115
vn -0.0315313 -0.0449322 0.9984923
vn -0.0315313 0.0449322 0.9984923
vn 0.0315313 -0.0449322 -0.9984923
vn -0.0630323 0.0000000 -0.9980115
vn 0.0315313 0.0449322 -0.9984923
vn 0.0630323 0.0000000 0.9980115
vn -0.0315313 -0.0449322 0.9984923
vn -0.0315313 0.0449322 0.9984923
vn 0.0315313 -0.0449322 -0.9984923
vn -0.0630323 0.0000000 -0.9980115
vn 0.0315313 0.0449322 -0.9984923
vn 0.0630323 0.0000000 0.9980115
vn -0.0315313 -0.0449322 0.9984923
vn -0.0315313 0.0449322 0.9984923
vn 0.0315313 -0.0449322 -0.9984923
vn -0.0630323 0.0000000 -0.9980115
vn 0.0315313 0.0449322 -0.9984923
vn 0.0630323 0.0000000 0.9980115
vn -0.0315313 -0.0449322 0.9984923
vn -0.0315313 0.0449322 0.9984923
vn 0.0315313 -0.0449322 -0.9984923
vn -0.0630323 0.0000000 -0.9980115
vn 0.0315313 0.0449322 -0.9984923
vn 0.0630323 0.0000000 0.9980115
vn -0.0315313 -0.0449322 0.9984923
vn -0.0315313 0.0449322 0.9984923
vn 0.0315313 -0.0449322 -0.9984923
vn -0.0630323 0.0000000 -0.9980115
vn 0.0315313 0.0449322 -0.9984923
vn 0.0630323 0.0000000 0.9980115
vn -0.0315313 -0.0449322 0.9984923
vn -0.0315313 0.0449322 0.9984923
usemtl blanco
vt 0.02750000 0.71806299
vt 0.12500000 0.71806299
vt 0.05605938 0.72120028
vt 0.02754663 0.71806299
vt 0.02757962 0.72120028
vt 0.07627332 0.68838895
vt 0.07627332 0.68838895
vt 0.02757962 0.72120028
vt 0.07630630 0.69152623
vt 0.02750000 0.68838895
vt 0.05605938 0.69152623
vt 0.12500000 0.68838895
vt 0.05605938 0.72120028
vt 0.12500000 0.71806299
vt 0.12500000 0.72250000
vt 0.02757962 0.55605938
vt 0.02759326 0.62500000
vt 0.07630630 0.55605938
vt 0.07630630 0.55605938
vt 0.02759326 0.62500000
vt 0.07631995 0.62500000
vt 0.05605938 0.69152623
vt 0.12500000 0.69282596
vt 0.12500000 0.68838895
vt 0.12500000 0.72250000
vt 0.12500000 0.71806299
vt 0.19394062 0.72120028
vt 0.02759326 0.62500000
vt 0.02757962 0.69394062
vt 0.07631995 0.62500000
vt 0.07631995 0.62500000
vt 0.02757962 0.69394062
vt 0.07630630 0.69394062
vt 0.12500000 0.69282596
vt 0.19394062 0.69152623
vt 0.12500000 0.68838895
vt 0.19394062 0.72120028
vt 0.12500000 0.71806299
vt 0.22250000 0.71806299
vt 0.02757962 0.72120028
vt 0.02754663 0.71806299
vt 0.07630630 0.69152623
vt 0.07630630 0.69152623
vt 0.02754663 0.71806299
vt 0.07627332 0.68838895
vt 0.19394062 0.69152623
vt 0.22250000 0.68838895
vt 0.12500000 0.68838895
vt 0.22250000 0.71806299
vt 0.12500000 0.71806299
vt 0.19394062 0.71492570
vt 0.02754663 0.71806299
vt 0.02751364 0.71492570
vt 0.07627332 0.68838895
vt 0.07627332 0.68838895
vt 0.02751364 0.71492570
vt 0.07624033 0.68525166
vt 0.22250000 0.68838895
vt 0.19394062 0.68525166
vt 0.12500000 0.68838895
vt 0.19394062 0.71492570
vt 0.12500000 0.71806299
vt 0.12500000 0.71362598
vt 0.02751364 0.69394062
vt 0.02750000 0.62500000
vt 0.07624033 0.69394062
vt 0.07624033 0.69394062
vt 0.02750000 0.62500000
vt 0.07622668 0.62500000
vt 0.19394062 0.68525166
vt 0.12500000 0.68395194
vt 0.12500000 0.68838895
vt 0.12500000 0.71362598
vt 0.12500000 0.71806299
vt 0.05605938 0.71492570
vt 0.02750000 0.62500000
vt 0.02751364 0.55605938
vt 0.07622668 0.62500000
vt 0.07622668 0.62500000
vt 0.02751364 0.55605938
vt 0.07624033 0.55605938
vt 0.12500000 0.68395194
vt 0.05605938 0.68525166
vt 0.12500000 0.68838895
vt 0.05605938 0.71492570
vt 0.12500000 0.71806299
vt 0.02750000 0.71806299
vt 0.02751364 0.71492570
vt 0.02754663 0.71806299
vt 0.07624033 0.68525166
vt 0.07624033 0.68525166
vt 0.02754663 0.71806299
vt 0.07627332 0.68838895
vt 0.05605938 0.68525166
vt 0.02750000 0.68838895
vt 0.12500000 0.68838895
vt 0.02750000 0.68838895
vt 0.12500000 0.68838895
vt 0.05605938 0.69153254
vt 0.07627332 0.68838895
vt 0.07629398 0.69153254
vt 0.12500000 0.66984267
vt 0.12500000 0.66984267
vt 0.07629398 0.69153254
vt 0.12502066 0.67298626
vt 0.02750000 0.66984267
vt 0.05605938 0.67298626
vt 0.12500000 0.66984267
vt 0.05605938 0.69153254
vt 0.12500000 0.68838895
vt 0.12500000 0.69283449
vt 0.07629398 0.55605938
vt 0.07630250 0.62500000
vt 0.12502066 0.55605938
vt 0.12502066 0.55605938
vt 0.07630250 0.62500000
vt 0.12502919 0.62500000
vt 0.05605938 0.67298626
vt 0.12500000 0.67428821
vt 0.12500000 0.66984267
vt 0.12500000 0.69283449
vt 0.12500000 0.68838895
vt 0.19394062 0.69153254
vt 0.07630250 0.62500000
vt 0.07629398 0.69394062
vt 0.12502919 0.62500000
vt 0.12502919 0.62500000
vt 0.07629398 0.69394062
vt 0.12502066 0.69394062
vt 0.12500000 0.67428821
vt 0.19394062 0.67298626
vt 0.12500000 0.66984267
vt 0.19394062 0.69153254
vt 0.12500000 0.68838895
vt 0.22250000 0.68838895
vt 0.07629398 0.69153254
vt 0.07627332 0.68838895
vt 0.12502066 0.67298626
vt 0.12502066 0.67298626
vt 0.07627332 0.68838895
vt 0.12500000 0.66984267
vt 0.19394062 0.67298626
vt 0.22250000 0.66984267
vt 0.12500000 0.66984267
vt 0.22250000 0.68838895
vt 0.12500000 0.68838895
vt 0.19394062 0.68524535
vt 0.07627332 0.68838895
vt 0.07625266 0.68524535
vt 0.12500000 0.66984267
vt 0.12500000 0.66984267
vt 0.07625266 0.68524535
vt 0.12497934 0.66669908
vt 0.22250000 0.66984267
vt 0.19394062 0.66669908
vt 0.12500000 0.66984267
vt 0.19394062 0.68524535
vt 0.12500000 0.68838895
vt 0.12500000 0.68394340
vt 0.07625266 0.69394062
vt 0.07624413 0.62500000
vt 0.12497934 0.69394062
vt 0.12497934 0.69394062
vt 0.07624413 0.62500000
vt 0.12497081 0.62500000
vt 0.19394062 0.66669908
vt 0.12500000 0.66539713
vt 0.12500000 0.66984267
vt 0.12500000 0.68394340
vt 0.12500000 0.68838895
vt 0.05605938 0.68524535
vt 0.07624413 0.62500000
vt 0.07625266 0.55605938
vt 0.12497081 0.62500000
vt 0.12497081 0.62500000
vt 0.07625266 0.55605938
vt 0.12497934 0.55605938
vt 0.12500000 0.66539713
vt 0.05605938 0.66669908
vt 0.12500000 0.66984267
vt 0.05605938 0.68524535
vt 0.12500000 0.68838895
vt 0.02750000 0.68838895
vt 0.07625266 0.68524535
vt 0.07627332 0.68838895
vt 0.12497934 0.66669908
vt 0.12497934 0.66669908
vt 0.07627332 0.68838895
vt 0.12500000 0.66984267
vt 0.05605938 0.66669908
vt 0.02750000 0.66984267
vt 0.12500000 0.66984267
vt 0.02750000 0.66984267
vt 0.12500000 0.66984267
vt 0.05605938 0.67298626
vt 0.12500000 0.66984267
vt 0.12497934 0.67298626
vt 0.17372668 0.68838895
vt 0.17372668 0.68838895
vt 0.12497934 0.67298626
vt 0.17370602 0.69153254
vt 0.02750000 0.68838895
vt 0.05605938 0.69153254
vt 0.12500000 0.68838895
vt 0.05605938 0.67298626
vt 0.12500000 0.66984267
vt 0.12500000 0.67428821
vt 0.12497934 0.55605938
vt 0.12497081 0.62500000
vt 0.17370602 0.55605938
vt 0.17370602 0.55605938
vt 0.12497081 0.62500000
vt 0.17369750 0.62500000
vt 0.05605938 0.69153254
vt 0.12500000 0.69283449
vt 0.12500000 0.68838895
vt 0.12500000 0.67428821
vt 0.12500000 0.66984267
vt 0.19394062 0.67298626
vt 0.12497081 0.62500000
vt 0.12497934 0.69394062
vt 0.17369750 0.62500000
vt 0.17369750 0.62500000
vt 0.12497934 0.69394062
vt 0.17370602 0.69394062
vt 0.12500000 0.69283449
vt 0.19394062 0.69153254
vt 0.12500000 0.68838895
vt 0.19394062 0.67298626
vt 0.12500000 0.66984267
vt 0.22250000 0.66984267
vt 0.12497934 0.67298626
vt 0.12500000 0.66984267
vt 0.17370602 0.69153254
vt 0.17370602 0.69153254
vt 0.12500000 0.66984267
vt 0.17372668 0.68838895
vt 0.19394062 0.69153254
vt 0.22250000 0.68838895
vt 0.12500000 0.68838895
vt 0.22250000 0.66984267
vt 0.12500000 0.66984267
vt 0.19394062 0.66669908
vt 0.12500000 0.66984267
vt 0.12502066 0.66669908
vt 0.17372668 0.68838895
vt 0.17372668 0.68838895
vt 0.12502066 0.66669908
vt 0.17374734 0.68524535
vt 0.22250000 0.68838895
vt 0.19394062 0.68524535
vt 0.12500000 0.68838895
vt 0.19394062 0.66669908
vt 0.12500000 0.66984267
vt 0.12500000 0.66539713
vt 0.12502066 0.69394062
vt 0.12502919 0.62500000
vt 0.17374734 0.69394062
vt 0.17374734 0.69394062
vt 0.12502919 0.62500000
vt 0.17375587 0.62500000
vt 0.19394062 0.68524535
vt 0.12500000 0.68394340
vt 0.12500000 0.68838895
vt 0.12500000 0.66539713
vt 0.12500000 0.66984267
vt 0.05605938 0.66669908
vt 0.12502919 0.62500000
vt 0.12502066 0.55605938
vt 0.17375587 0.62500000
vt 0.17375587 0.62500000
vt 0.12502066 0.55605938
vt 0.17374734 0.55605938
vt 0.12500000 0.68394340
vt 0.05605938 0.68524535
vt 0.12500000 0.68838895
vt 0.05605938 0.66669908
vt 0.12500000 0.66984267
vt 0.02750000 0.66984267
vt 0.12502066 0.66669908
vt 0.12500000 0.66984267
vt 0.17374734 0.68524535
vt 0.17374734 0.68524535
vt 0.12500000 0.66984267
vt 0.17372668 0.68838895
vt 0.05605938 0.68524535
vt 0.02750000 0.68838895
vt 0.12500000 0.68838895
vt 0.02750000 0.68838895
vt 0.12500000 0.68838895
vt 0.05605938 0.69152623
vt 0.17372668 0.68838895
vt 0.17369370 0.69152623
vt 0.22245337 0.71806299
vt 0.22245337 0.71806299
vt 0.17369370 0.69152623
vt 0.22242038 0.72120028
vt 0.02750000 0.71806299
vt 0.05605938 0.72120028
vt 0.12500000 0.71806299
vt 0.05605938 0.69152623
vt 0.12500000 0.68838895
vt 0.12500000 0.69282596
vt 0.17369370 0.55605938
vt 0.17368005 0.62500000
vt 0.22242038 0.55605938
vt 0.22242038 0.55605938
vt 0.17368005 0.62500000
vt 0.22240674 0.62500000
vt 0.05605938 0.72120028
vt 0.12500000 0.72250000
vt 0.12500000 0.71806299
vt 0.12500000 0.69282596
vt 0.12500000 0.68838895
vt 0.19394062 0.69152623
vt 0.17368005 0.62500000
vt 0.17369370 0.69394062
vt 0.22240674 0.62500000
vt 0.22240674 0.62500000
vt 0.17369370 0.69394062
vt 0.22242038 0.69394062
vt 0.12500000 0.72250000
vt 0.19394062 0.72120028
vt 0.12500000 0.71806299
vt 0.19394062 0.69152623
vt 0.12500000 0.68838895
vt 0.22250000 0.68838895
vt 0.17369370 0.69152623
vt 0.17372668 0.68838895
vt 0.22242038 0.72120028
vt 0.22242038 0.72120028
vt 0.17372668 0.68838895
vt 0.22245337 0.71806299
vt 0.19394062 0.72120028
vt 0.22250000 0.71806299
vt 0.12500000 0.71806299
vt 0.22250000 0.68838895
vt 0.12500000 0.68838895
vt 0.19394062 0.68525166
vt 0.17372668 0.68838895
vt 0.17375967 0.68525166
vt 0.22245337 0.71806299
vt 0.22245337 0.71806299
vt 0.17375967 0.68525166
vt 0.22248636 0.71492570
vt 0.22250000 0.71806299
vt 0.19394062 0.71492570
vt 0.12500000 0.71806299
vt 0.19394062 0.68525166
vt 0.12500000 0.68838895
vt 0.12500000 0.68395194
vt 0.17375967 0.69394062
vt 0.17377332 0.62500000
vt 0.22248636 0.69394062
vt 0.22248636 0.69394062
vt 0.17377332 0.62500000
vt 0.22250000 0.62500000
vt 0.19394062 0.71492570
vt 0.12500000 0.71362598
vt 0.12500000 0.71806299
vt 0.12500000 0.68395194
vt 0.12500000 0.68838895
vt 0.05605938 0.68525166
vt 0.17377332 0.62500000
vt 0.17375967 0.55605938
vt 0.22250000 0.62500000
vt 0.22250000 0.62500000
vt 0.17375967 0.55605938
vt 0.22248636 0.55605938
vt 0.12500000 0.71362598
vt 0.05605938 0.71492570
vt 0.12500000 0.71806299
vt 0.05605938 0.68525166
vt 0.12500000 0.68838895
vt 0.02750000 0.68838895
vt 0.17375967 0.68525166
vt 0.17372668 0.68838895
vt 0.22248636 0.71492570
vt 0.22248636 0.71492570
vt 0.17372668 0.68838895
vt 0.22245337 0.71806299
vt 0.05605938 0.71492570
vt 0.02750000 0.71806299
vt 0.12500000 0.71806299
vt 0.03047023 0.96203545
vt 0.04898637 0.96203545
vt 0.03972830 0.81366524
vt 0.03972830 0.81366524
vt 0.04898637 0.96203545
vt 0.03047023 0.96203545
vt 0.03047023 0.87500000
vt 0.03047023 0.77750000
vt 0.04898637 0.77750000
vt 0.03047023 0.87500000
vt 0.04898637 0.77750000
vt 0.04898637 0.87500000
vt 0.12500000 0.96203545
vt 0.02750000 0.96203545
vt 0.02750000 0.81366524
vt 0.12500000 0.96203545
vt 0.02750000 0.81366524
vt 0.12500000 0.81366524
vt 0.12500000 0.81366524
vt 0.02750000 0.81366524
vt 0.02750000 0.96203545
vt 0.12500000 0.81366524
vt 0.02750000 0.96203545
vt 0.12500000 0.96203545
vt 0.80483357 0.69998037
vt 0.82334971 0.69998037
vt 0.81409164 0.55161016
vt 0.81409164 0.55161016
vt 0.82334971 0.69998037
vt 0.80483357 0.69998037
vt 0.80483357 0.62500000
vt 0.80483357 0.52750000
vt 0.82334971 0.52750000
vt 0.80483357 0.62500000
vt 0.82334971 0.52750000
vt 0.82334971 0.62500000
vt 0.87500000 0.69998037
vt 0.77750000 0.69998037
vt 0.77750000 0.55161016
vt 0.87500000 0.69998037
vt 0.77750000 0.55161016
vt 0.87500000 0.55161016
vt 0.87500000 0.55161016
vt 0.77750000 0.55161016
vt 0.77750000 0.69998037
vt 0.87500000 0.55161016
vt 0.77750000 0.69998037
vt 0.87500000 0.69998037
vt 0.32919692 0.68792529
vt 0.34771306 0.68792529
vt 0.33845499 0.53955508
vt 0.33845499 0.53955508
vt 0.34771306 0.68792529
vt 0.32919692 0.68792529
vt 0.32919692 0.62500000
vt 0.32919692 0.52750000
vt 0.34771306 0.52750000
vt 0.32919692 0.62500000
vt 0.34771306 0.52750000
vt 0.34771306 0.62500000
vt 0.37500000 0.68792529
vt 0.27750000 0.68792529
vt 0.27750000 0.53955508
vt 0.37500000 0.68792529
vt 0.27750000 0.53955508
vt 0.37500000 0.53955508
vt 0.37500000 0.53955508
vt 0.27750000 0.53955508
vt 0.27750000 0.68792529
vt 0.37500000 0.53955508
vt 0.27750000 0.68792529
vt 0.37500000 0.68792529
vt 0.60356026 0.67587021
vt 0.62207640 0.67587021
vt 0.61281833 0.52750000
vt 0.61281833 0.52750000
vt 0.62207640 0.67587021
vt 0.60356026 0.67587021
vt 0.60356026 0.62500000
vt 0.60356026 0.52750000
vt 0.62207640 0.52750000
vt 0.60356026 0.62500000
vt 0.62207640 0.52750000
vt 0.62207640 0.62500000
vt 0.62500000 0.67587021
vt 0.52750000 0.67587021
vt 0.52750000 0.52750000
vt 0.62500000 0.67587021
vt 0.52750000 0.52750000
vt 0.62500000 0.52750000
vt 0.62500000 0.52750000
vt 0.52750000 0.52750000
vt 0.52750000 0.67587021
vt 0.62500000 0.52750000
vt 0.52750000 0.67587021
vt 0.62500000 0.67587021
vt 0.12792360 0.42587021
vt 0.14643974 0.42587021
vt 0.13718167 0.27750000
vt 0.13718167 0.27750000
vt 0.14643974 0.42587021
vt 0.12792360 0.42587021
vt 0.12792360 0.37500000
vt 0.12792360 0.27750000
vt 0.14643974 0.27750000
vt 0.12792360 0.37500000
vt 0.14643974 0.27750000
vt 0.14643974 0.37500000
vt 0.12500000 0.42587021
vt 0.02750000 0.42587021
vt 0.02750000 0.27750000
vt 0.12500000 0.42587021
vt 0.02750000 0.27750000
vt 0.12500000 0.27750000
vt 0.12500000 0.27750000
vt 0.02750000 0.27750000
vt 0.02750000 0.42587021
vt 0.12500000 0.27750000
vt 0.02750000 0.42587021
vt 0.12500000 0.42587021
vt 0.65228694 0.93792529
vt 0.67080308 0.93792529
vt 0.66154501 0.78955508
vt 0.66154501 0.78955508
vt 0.67080308 0.93792529
vt 0.65228694 0.93792529
vt 0.65228694 0.87500000
vt 0.65228694 0.77750000
vt 0.67080308 0.77750000
vt 0.65228694 0.87500000
vt 0.67080308 0.77750000
vt 0.67080308 0.87500000
vt 0.62500000 0.93792529
vt 0.52750000 0.93792529
vt 0.52750000 0.78955508
vt 0.62500000 0.93792529
vt 0.52750000 0.78955508
vt 0.62500000 0.78955508
vt 0.62500000 0.78955508
vt 0.52750000 0.78955508
vt 0.52750000 0.93792529
vt 0.62500000 0.78955508
vt 0.52750000 0.93792529
vt 0.62500000 0.93792529
vt 0.92665029 0.69998037
vt 0.94516643 0.69998037
vt 0.93590836 0.55161016
vt 0.93590836 0.55161016
vt 0.94516643 0.69998037
vt 0.92665029 0.69998037
vt 0.92665029 0.62500000
vt 0.92665029 0.52750000
vt 0.94516643 0.52750000
vt 0.92665029 0.62500000
vt 0.94516643 0.52750000
vt 0.94516643 0.62500000
vt 0.87500000 0.69998037
vt 0.77750000 0.69998037
vt 0.77750000 0.55161016
vt 0.87500000 0.69998037
vt 0.77750000 0.55161016
vt 0.87500000 0.55161016
vt 0.87500000 0.55161016
vt 0.77750000 0.55161016
vt 0.77750000 0.69998037
vt 0.87500000 0.55161016
vt 0.77750000 0.69998037
vt 0.87500000 0.69998037
vt 0.45101363 0.71203545
vt 0.46952977 0.71203545
vt 0.46027170 0.56366524
vt 0.46027170 0.56366524
vt 0.46952977 0.71203545
vt 0.45101363 0.71203545
vt 0.45101363 0.62500000
vt 0.45101363 0.52750000
vt 0.46952977 0.52750000
vt 0.45101363 0.62500000
vt 0.46952977 0.52750000
vt 0.46952977 0.62500000
vt 0.37500000 0.71203545
vt 0.27750000 0.71203545
vt 0.27750000 0.56366524
vt 0.37500000 0.71203545
vt 0.27750000 0.56366524
vt 0.37500000 0.56366524
vt 0.37500000 0.56366524
vt 0.27750000 0.56366524
vt 0.27750000 0.71203545
vt 0.37500000 0.56366524
vt 0.27750000 0.71203545
vt 0.37500000 0.71203545
f 2/1/2 1/2/1 5/3/5
f 2/4/2 5/5/5 3/6/3
f 3/7/3 5/8/5 6/9/6
f 3/10/3 6/11/6 4/12/4
f 5/13/5 1/14/1 7/15/7
f 5/16/5 7/17/7 6/18/6
f 6/19/6 7/20/7 8/21/8
f 6/22/6 8/23/8 4/24/4
f 7/25/7 1/26/1 9/27/9
f 7/28/7 9/29/9 8/30/8
f 8/31/8 9/32/9 10/33/10
f 8/34/8 10/35/10 4/36/4
f 9/37/9 1/38/1 11/39/11
f 9/40/9 11/41/11 10/42/10
f 10/43/10 11/44/11 12/45/12
f 10/46/10 12/47/12 4/48/4
f 11/49/11 1/50/1 13/51/13
f 11/52/11 13/53/13 12/54/12
f 12/55/12 13/56/13 14/57/14
f 12/58/12 14/59/14 4/60/4
f 13/61/13 1/62/1 15/63/15
f 13/64/13 15/65/15 14/66/14
f 14/67/14 15/68/15 16/69/16
f 14/70/14 16/71/16 4/72/4
f 15/73/15 1/74/1 17/75/17
f 15/76/15 17/77/17 16/78/16
f 16/79/16 17/80/17 18/81/18
f 16/82/16 18/83/18 4/84/4
f 17/85/17 1/86/1 2/87/2
f 17/88/17 2/89/2 18/90/18
f 18/91/18 2/92/2 3/93/3
f 18/94/18 3/95/3 4/96/4
f 20/97/20 19/98/19 23/99/23
f 20/100/20 23/101/23 21/102/21
f 21/103/21 23/104/23 24/105/24
f 21/106/21 24/107/24 22/108/22
f 23/109/23 19/110/19 25/111/25
f 23/112/23 25/113/25 24/114/24
f 24/115/24 25/116/25 26/117/26
f 24/118/24 26/119/26 22/120/22
f 25/121/25 19/122/19 27/123/27
f 25/124/25 27/125/27 26/126/26
f 26/127/26 27/128/27 28/129/28
f 26/130/26 28/131/28 22/132/22
f 27/133/27 19/134/19 29/135/29
f 27/136/27 29/137/29 28/138/28
f 28/139/28 29/140/29 30/141/30
f 28/142/28 30/143/30 22/144/22
f 29/145/29 19/146/19 31/147/31
f 29/148/29 31/149/31 30/150/30
f 30/151/30 31/152/31 32/153/32
f 30/154/30 32/155/32 22/156/22
f 31/157/31 19/158/19 33/159/33
f 31/160/31 33/161/33 32/162/32
f 32/163/32 33/164/33 34/165/34
f 32/166/32 34/167/34 22/168/22
f 33/169/33 19/170/19 35/171/35
f 33/172/33 35/173/35 34/174/34
f 34/175/34 35/176/35 36/177/36
f 34/178/34 36/179/36 22/180/22
f 35/181/35 19/182/19 20/183/20
f 35/184/35 20/185/20 36/186/36
f 36/187/36 20/188/20 21/189/21
f 36/190/36 21/191/21 22/192/22
f 38/193/38 37/194/37 41/195/41
f 38/196/38 41/197/41 39/198/39
f 39/199/39 41/200/41 42/201/42
f 39/202/39 42/203/42 40/204/40
f 41/205/41 37/206/37 43/207/43
f 41/208/41 43/209/43 42/210/42
f 42/211/42 43/212/43 44/213/44
f 42/214/42 44/215/44 40/216/40
f 43/217/43 37/218/37 45/219/45
f 43/220/43 45/221/45 44/222/44
f 44/223/44 45/224/45 46/225/46
f 44/226/44 46/227/46 40/228/40
f 45/229/45 37/230/37 47/231/47
f 45/232/45 47/233/47 46/234/46
f 46/235/46 47/236/47 48/237/48
f 46/238/46 48/239/48 40/240/40
f 47/241/47 37/242/37 49/243/49
f 47/244/47 49/245/49 48/246/48
f 48/247/48 49/248/49 50/249/50
f 48/250/48 50/251/50 40/252/40
f 49/253/49 37/254/37 51/255/51
f 49/256/49 51/257/51 50/258/50
f 50/259/50 51/260/51 52/261/52
f 50/262/50 52/263/52 40/264/40
f 51/265/51 37/266/37 53/267/53
f 51/268/51 53/269/53 52/270/52
f 52/271/52 53/272/53 54/273/54
f 52/274/52 54/275/54 40/276/40
f 53/277/53 37/278/37 38/279/38
f 53/280/53 38/281/38 54/282/54
f 54/283/54 38/284/38 39/285/39
f 54/286/54 39/287/39 40/288/40
f 56/289/56 55/290/55 59/291/59
f 56/292/56 59/293/59 57/294/57
f 57/295/57 59/296/59 60/297/60
f 57/298/57 60/299/60 58/300/58
f 59/301/59 55/302/55 61/303/61
f 59/304/59 61/305/61 60/306/60
f 60/307/60 61/308/61 62/309/62
f 60/310/60 62/311/62 58/312/58
f 61/313/61 55/314/55 63/315/63
f 61/316/61 63/317/63 62/318/62
f 62/319/62 63/320/63 64/321/64
f 62/322/62 64/323/64 58/324/58
f 63/325/63 55/326/55 65/327/65
f 63/328/63 65/329/65 64/330/64
f 64/331/64 65/332/65 66/333/66
f 64/334/64 66/335/66 58/336/58
f 65/337/65 55/338/55 67/339/67
f 65/340/65 67/341/67 66/342/66
f 66/343/66 67/344/67 68/345/68
f 66/346/66 68/347/68 58/348/58
f 67/349/67 55/350/55 69/351/69
f 67/352/67 69/353/69 68/354/68
f 68/355/68 69/356/69 70/357/70
f 68/358/68 70/359/70 58/360/58
f 69/361/69 55/362/55 71/363/71
f 69/364/69 71/365/71 70/366/70
f 70/367/70 71/368/71 72/369/72
f 70/370/70 72/371/72 58/372/58
f 71/373/71 55/374/55 56/375/56
f 71/376/71 56/377/56 72/378/72
f 72/379/72 56/380/56 57/381/57
f 72/382/72 57/383/57 58/384/58
usemtl rosa_pastel
f 73/385/73 74/386/74 75/387/75
f 78/388/78 77/389/77 76/390/76
f 73/391/73 76/392/76 77/393/77
f 73/394/73 77/395/77 74/396/74
f 74/397/74 77/398/77 78/399/78
f 74/400/74 78/401/78 75/402/75
f 75/403/75 78/404/78 76/405/76
f 75/406/75 76/407/76 73/408/73
usemtl menta
f 79/409/79 80/410/80 81/411/81
f 84/412/84 83/413/83 82/414/82
f 79/415/79 82/416/82 83/417/83
f 79/418/79 83/419/83 80/420/80
f 80/421/80 83/422/83 84/423/84
f 80/424/80 84/425/84 81/426/81
f 81/427/81 84/428/84 82/429/82
f 81/430/81 82/431/82 79/432/79
usemtl amarillo
f 85/433/85 86/434/86 87/435/87
f 90/436/90 89/437/89 88/438/88
f 85/439/85 88/440/88 89/441/89
f 85/442/85 89/443/89 86/444/86
f 86/445/86 89/446/89 90/447/90
f 86/448/86 90/449/90 87/450/87
f 87/451/87 90/452/90 88/453/88
f 87/454/87 88/455/88 85/456/85
usemtl azul
f 91/457/91 92/458/92 93/459/93
f 96/460/96 95/461/95 94/462/94
f 91/463/91 94/464/94 95/465/95
f 91/466/91 95/467/95 92/468/92
f 92/469/92 95/470/95 96/471/96
f 92/472/92 96/473/96 93/474/93
f 93/475/93 96/476/96 94/477/94
f 93/478/93 94/479/94 91/480/91
usemtl lila
f 97/481/97 98/482/98 99/483/99
f 102/484/102 101/485/101 100/486/100
f 97/487/97 100/488/100 101/489/101
f 97/490/97 101/491/101 98/492/98
f 98/493/98 101/494/101 102/495/102
f 98/496/98 102/497/102 99/498/99
f 99/499/99 102/500/102 100/501/100
f 99/502/99 100/503/100 97/504/97
usemtl rosa_fuerte
f 103/505/103 104/506/104 105/507/105
f 108/508/108 107/509/107 106/510/106
f 103/511/103 106/512/106 107/513/107
f 103/514/103 107/515/107 104/516/104
f 104/517/104 107/518/107 108/519/108
f 104/520/104 108/521/108 105/522/105
f 105/523/105 108/524/108 106/525/106
f 105/526/105 106/527/106 103/528/103
usemtl menta
f 109/529/109 110/530/110 111/531/111
f 114/532/114 113/533/113 112/534/112
f 109/535/109 112/536/112 113/537/113
f 109/538/109 113/539/113 110/540/110
f 110/541/110 113/542/113 114/543/114
f 110/544/110 114/545/114 111/546/111
f 111/547/111 114/548/114 112/549/112
f 111/550/111 112/551/112 109/552/109
usemtl amarillo
f 115/553/115 116/554/116 117/555/117
f 120/556/120 119/557/119 118/558/118
f 115/559/115 118/560/118 119/561/119
f 115/562/115 119/563/119 116/564/116
f 116/565/116 119/566/119 120/567/120
f 116/568/116 120/569/120 117/570/117
f 117/571/117 120/572/120 118/573/118
f 117/574/117 118/575/118 115/576/115
